# xmcd CD database file
# Copyright (C) 1996 Ti Kan
#
# Track frame offsets:
# 	150
# 	20122
# 	36060
# 	51835
# 	64830
# 	82455
# 	94742
# 	113117
# 	128275
# 	142880
#
# Disc length: 2153 seconds
#
# Revision: 1
# Processed by: cddbd v1.4b41PL1 Copyright (c) Steve Scherf et al.
# Submitted via: DiscPlay 3.4.1
#
DISCID=8508670a
DTITLE=Charlie Floyd - Charlie's Nite Life
DYEAR=1900
DGENRE=
TTITLE0=Southbound Train
TTITLE1=Mama Raised Me Right
TTITLE2=Man Behind the Wheel
TTITLE3=I've Fallen in Love (and I Can't Get Up)
TTITLE4=Carolina Rain
TTITLE5=Good Girls Go  to Heaven
TTITLE6=If it Wasn't for the Pain
TTITLE7=By George I'm Jonesin'
TTITLE8=I Still Do
TTITLE9=Grandma's Song
EXTD=
EXTT0=
EXTT1=
EXTT2=
EXTT3=
EXTT4=
EXTT5=
EXTT6=
EXTT7=
EXTT8=
EXTT9=
PLAYORDER=
